<?xml version="1.0" encoding="UTF-8" standalone="no"?>
<!-- Created with Inkscape (http://www.inkscape.org/) -->

<svg
   version="1.1"
   id="svg7644"
   xml:space="preserve"
   width="682.66669"
   height="682.66669"
   viewBox="0 0 682.66669 682.66669"
   xmlns="http://www.w3.org/2000/svg"
   xmlns:svg="http://www.w3.org/2000/svg"><defs
     id="defs7648"><clipPath
       clipPathUnits="userSpaceOnUse"
       id="clipPath7658"><path
         d="M 0,512 H 512 V 0 H 0 Z"
         id="path7656" /></clipPath></defs><g
     id="g7650"
     transform="matrix(1.3333333,0,0,-1.3333333,0,682.66667)"><g
       id="g7652"><g
         id="g7654"
         clip-path="url(#clipPath7658)"><g
           id="g7660"
           transform="translate(256,501)"><path
             d="m 0,0 c -135.31,0 -245,-109.69 -245,-245 0,-49.574 14.738,-95.699 40.052,-134.262 l 309.846,29.364 100.051,239.16 C 161.171,-44.049 85.735,0 0,0"
             style="fill:#00adf4;fill-opacity:1;fill-rule:nonzero;stroke:none"
             id="path7662" /></g><g
           id="g7664"
           transform="translate(367.7285,390.6572)"><path
             d="m 0,0 c -1.246,0 -2.459,-0.141 -3.628,-0.399 1.293,3.115 2.01,6.528 2.01,10.111 0,14.585 -11.824,26.409 -26.409,26.409 -2.388,0 -4.699,-0.322 -6.898,-0.916 -2.205,18.908 -18.274,33.583 -37.774,33.583 -19.5,0 -35.571,-14.675 -37.776,-33.583 -2.199,0.594 -4.509,0.916 -6.896,0.916 -14.586,0 -26.409,-11.824 -26.409,-26.409 0,-3.583 0.717,-6.996 2.009,-10.111 -1.169,0.258 -2.381,0.399 -3.628,0.399 -9.222,0 -16.698,-7.476 -16.698,-16.697 0,-9.223 7.476,-16.699 16.698,-16.699 H 0 c 9.222,0 16.698,7.476 16.698,16.699 C 16.698,-7.476 9.222,0 0,0"
             style="fill:#e6f8fc;fill-opacity:1;fill-rule:nonzero;stroke:none"
             id="path7666" /></g><g
           id="g7668"
           transform="translate(295.0293,381.8369)"><path
             d="M 0,0 C 0,0.517 0.021,1.028 0.053,1.538 0.035,1.538 0.018,1.537 0,1.537 c -21.007,0 -38.036,17.029 -38.036,38.036 0,1.506 0.091,2.991 0.261,4.452 -2.2,0.594 -4.51,0.916 -6.897,0.916 -14.586,0 -26.409,-11.824 -26.409,-26.409 0,-3.583 0.717,-6.996 2.009,-10.111 -1.169,0.259 -2.381,0.399 -3.628,0.399 -9.222,0 -16.697,-7.475 -16.697,-16.697 0,-9.223 7.475,-16.698 16.697,-16.698 H 24.574 C 11.002,-24.575 0,-13.572 0,0"
             style="fill:#b8e9fa;fill-opacity:1;fill-rule:nonzero;stroke:none"
             id="path7670" /></g><g
           id="g7672"
           transform="translate(240.29,397.8057)"><path
             d="m 0,0 v 0 c -18.91,2.026 -25.406,26.271 -10.043,37.481 4.486,3.274 5.783,9.404 3.006,14.213 -2.776,4.81 -8.734,6.752 -13.812,4.503 -17.389,-7.7 -35.138,10.049 -27.438,27.439 2.249,5.078 0.307,11.035 -4.503,13.811 -4.81,2.778 -10.939,1.481 -14.213,-3.006 -11.21,-15.363 -35.455,-8.867 -37.481,10.043 -0.592,5.523 -5.252,9.71 -10.806,9.71 -5.554,0 -10.214,-4.187 -10.806,-9.71 -2.026,-18.91 -26.271,-25.406 -37.481,-10.043 -3.274,4.487 -9.403,5.784 -14.213,3.006 -4.81,-2.776 -6.752,-8.733 -4.503,-13.811 7.7,-17.39 -10.049,-35.139 -27.438,-27.439 -5.079,2.249 -11.036,0.307 -13.812,-4.503 -2.777,-4.809 -1.48,-10.939 3.006,-14.213 15.363,-11.21 8.867,-35.455 -10.043,-37.481 -5.523,-0.592 -9.71,-5.252 -9.71,-10.806 0,-5.553 4.187,-10.214 9.71,-10.805 18.91,-2.027 25.406,-26.272 10.043,-37.482 -4.486,-3.273 -5.783,-9.403 -3.006,-14.213 2.776,-4.809 8.733,-6.752 13.812,-4.503 17.389,7.701 35.138,-10.048 27.438,-27.438 -2.249,-5.078 -0.307,-11.035 4.503,-13.812 4.81,-2.777 10.939,-1.48 14.213,3.006 11.21,15.364 35.455,8.867 37.481,-10.043 0.592,-5.522 5.252,-9.71 10.806,-9.71 5.554,0 10.214,4.188 10.806,9.71 2.026,18.91 26.271,25.407 37.481,10.043 3.274,-4.486 9.403,-5.783 14.213,-3.006 4.81,2.777 6.752,8.734 4.503,13.812 -7.7,17.39 10.049,35.139 27.438,27.438 5.078,-2.249 11.036,-0.306 13.812,4.503 2.777,4.81 1.48,10.94 -3.006,14.213 -15.363,11.21 -8.867,35.455 10.043,37.482 5.522,0.591 9.71,5.252 9.71,10.805 C 9.71,-5.252 5.522,-0.592 0,0"
             style="fill:#fff442;fill-opacity:1;fill-rule:nonzero;stroke:none"
             id="path7674" /></g><g
           id="g7676"
           transform="translate(210.2275,387)"><path
             d="m 0,0 c 0,-47.069 -38.158,-85.228 -85.228,-85.228 -47.069,0 -85.227,38.159 -85.227,85.228 0,47.069 38.158,85.228 85.227,85.228 C -38.158,85.228 0,47.069 0,0"
             style="fill:#ffe400;fill-opacity:1;fill-rule:nonzero;stroke:none"
             id="path7678" /></g><g
           id="g7680"
           transform="translate(174.2158,436.2158)"><path
             d="m 0,0 c 8.906,-8.905 8.906,-23.344 0,-32.249 -8.905,-8.905 -23.344,-8.905 -32.249,0 -8.905,8.905 -8.905,23.344 0,32.249 C -23.344,8.906 -8.905,8.906 0,0"
             style="fill:#fff442;fill-opacity:1;fill-rule:nonzero;stroke:none"
             id="path7682" /></g><g
           id="g7684"
           transform="translate(79.5459,387)"><path
             d="M 0,0 C 0,40.222 27.864,73.931 65.341,82.889 58.96,84.414 52.302,85.228 45.454,85.228 -1.615,85.228 -39.773,47.069 -39.773,0 c 0,-47.069 38.158,-85.228 85.227,-85.228 6.848,0 13.506,0.814 19.887,2.339 C 27.864,-73.931 0,-40.222 0,0"
             style="fill:#fdca00;fill-opacity:1;fill-rule:nonzero;stroke:none"
             id="path7686" /></g><g
           id="g7688"
           transform="translate(338.1729,249.2578)"><path
             d="m 0,0 c -6.454,0 -12.421,-2.075 -17.282,-5.586 -0.228,17.531 -11.687,32.345 -27.515,37.584 5.458,9.424 8.598,20.358 8.598,32.033 0,35.364 -28.668,64.031 -64.031,64.031 -33.196,0 -60.489,-25.261 -63.71,-57.608 -5.063,1.249 -10.351,1.924 -15.799,1.924 -36.309,0 -65.743,-29.435 -65.743,-65.744 0,-3.192 0.239,-6.327 0.678,-9.398 -3.791,1.77 -8.017,2.764 -12.477,2.764 -16.323,0 -29.555,-13.232 -29.555,-29.555 0,-16.323 13.232,-29.554 29.555,-29.554 H 0 c 16.322,0 29.555,13.231 29.555,29.554 C 29.555,-13.232 16.322,0 0,0"
             style="fill:#e6f8fc;fill-opacity:1;fill-rule:nonzero;stroke:none"
             id="path7690" /></g><g
           id="g7692"
           transform="translate(209.5322,239.2637)"><path
             d="m 0,0 c 0,5.407 0.887,10.605 2.501,15.471 -22.452,9.95 -38.122,32.416 -38.122,58.554 0,2.168 0.11,4.31 0.321,6.423 -5.062,1.249 -10.35,1.924 -15.799,1.924 -36.308,0 -65.743,-29.434 -65.743,-65.744 0,-3.191 0.239,-6.327 0.679,-9.398 -3.791,1.77 -8.018,2.764 -12.478,2.764 -16.323,0 -29.554,-13.232 -29.554,-29.555 0,-16.323 13.231,-29.554 29.554,-29.554 H 49.115 C 21.989,-49.115 0,-27.126 0,0"
             style="fill:#b8e9fa;fill-opacity:1;fill-rule:nonzero;stroke:none"
             id="path7694" /></g><g
           id="g7696"
           transform="translate(460.9492,390.2617)"><path
             d="m 0,0 c -62.836,-62.112 -112.15,-92.051 -157.976,-113.689 l -30.973,-54.04 -140.725,-32.384 c -24.473,-17.408 -50.873,-39.397 -80.223,-68.41 43.777,-66.69 119.212,-110.739 204.948,-110.739 135.309,0 245,109.691 245,245 C 40.051,-84.688 25.312,-38.563 0,0"
             style="fill:#41416b;fill-opacity:1;fill-rule:nonzero;stroke:none"
             id="path7698" /></g><g
           id="g7700"
           transform="translate(338.1729,190.1484)"><path
             d="m 0,0 c 16.322,0 29.555,13.231 29.555,29.555 0,16.322 -13.233,29.554 -29.555,29.554 -6.454,0 -12.421,-2.075 -17.282,-5.586 -0.178,13.735 -7.251,25.8 -17.917,32.901 C -91.497,59.841 -142.531,45.78 -206.897,0 Z"
             style="fill:#7070ab;fill-opacity:1;fill-rule:nonzero;stroke:none"
             id="path7702" /></g><g
           id="g7704"
           transform="translate(258.6475,190.1484)"><path
             d="M 0,0 C -25.937,0 -47.163,20.108 -48.976,45.584 -73.593,33.992 -99.206,20.033 -127.372,0 Z"
             style="fill:#616196;fill-opacity:1;fill-rule:nonzero;stroke:none"
             id="path7706" /></g><g
           id="g7708"
           transform="translate(512,120)"><path
             d="m 0,0 c 0,-66.274 -53.726,-120 -120,-120 -66.274,0 -120,53.726 -120,120 0,66.274 53.726,120 120,120 C -53.726,120 0,66.274 0,0"
             style="fill:#fff9e1;fill-opacity:1;fill-rule:nonzero;stroke:none"
             id="path7710" /></g><g
           id="g7712"
           transform="translate(327.8643,120)"><path
             d="M 0,0 C 0,56.656 39.267,104.135 92.068,116.725 83.104,118.861 73.754,120 64.136,120 c -66.275,0 -120,-53.726 -120,-120 0,-66.274 53.725,-120 120,-120 9.618,0 18.968,1.139 27.932,3.275 C 39.267,-104.135 0,-56.656 0,0"
             style="fill:#fff2b9;fill-opacity:1;fill-rule:nonzero;stroke:none"
             id="path7714" /></g><g
           id="g7716"
           transform="translate(490.5166,108)"><path
             d="m 0,0 c 0,-13.255 -10.745,-24 -24,-24 -13.255,0 -24,10.745 -24,24 0,13.255 10.745,24 24,24 C -10.745,24 0,13.255 0,0"
             style="fill:#fff2b9;fill-opacity:1;fill-rule:nonzero;stroke:none"
             id="path7718" /></g><g
           id="g7720"
           transform="translate(466.5166,96)"><path
             d="m 0,0 c -6.617,0 -12,5.383 -12,12 0,6.617 5.383,12 12,12 C 6.616,24 12,18.617 12,12 12,5.383 6.616,0 0,0"
             style="fill:#fee886;fill-opacity:1;fill-rule:nonzero;stroke:none"
             id="path7722" /></g><g
           id="g7724"
           transform="translate(357.2227,167.4268)"><path
             d="m 0,0 c 0,-11.046 -8.954,-20 -20,-20 -11.046,0 -20,8.954 -20,20 0,11.046 8.954,20 20,20 C -8.954,20 0,11.046 0,0"
             style="fill:#fff2b9;fill-opacity:1;fill-rule:nonzero;stroke:none"
             id="path7726" /></g><g
           id="g7728"
           transform="translate(337.2227,159.4268)"><path
             d="m 0,0 c -4.411,0 -8,3.589 -8,8 0,4.411 3.589,8 8,8 C 4.412,16 8,12.411 8,8 8,3.589 4.412,0 0,0"
             style="fill:#fee886;fill-opacity:1;fill-rule:nonzero;stroke:none"
             id="path7730" /></g><g
           id="g7732"
           transform="translate(460.0518,190.1484)"><path
             d="m 0,0 c 0,-11.046 -8.954,-20 -20,-20 -11.046,0 -20,8.954 -20,20 0,11.045 8.954,20 20,20 C -8.954,20 0,11.045 0,0"
             style="fill:#fff2b9;fill-opacity:1;fill-rule:nonzero;stroke:none"
             id="path7734" /></g><g
           id="g7736"
           transform="translate(440.0518,182.1484)"><path
             d="m 0,0 c -4.411,0 -8,3.588 -8,8 0,4.411 3.589,8 8,8 C 4.411,16 8,12.411 8,8 8,3.588 4.411,0 0,0"
             style="fill:#fee886;fill-opacity:1;fill-rule:nonzero;stroke:none"
             id="path7738" /></g><g
           id="g7740"
           transform="translate(414.7578,126.6523)"><path
             d="m 0,0 c 0,-6.285 -5.095,-11.38 -11.379,-11.38 -6.284,0 -11.379,5.095 -11.379,11.38 0,6.284 5.095,11.379 11.379,11.379 C -5.095,11.379 0,6.284 0,0"
             style="fill:#fff2b9;fill-opacity:1;fill-rule:nonzero;stroke:none"
             id="path7742" /></g><g
           id="g7744"
           transform="translate(315.3916,130.8418)"><path
             d="m 0,0 c 0,-6.284 -5.095,-11.379 -11.379,-11.379 -6.284,0 -11.379,5.095 -11.379,11.379 0,6.285 5.095,11.379 11.379,11.379 C -5.095,11.379 0,6.285 0,0"
             style="fill:#fff9e1;fill-opacity:1;fill-rule:nonzero;stroke:none"
             id="path7746" /></g><g
           id="g7748"
           transform="translate(308.6738,97.5771)"><path
             d="m 0,0 c -1.246,0 -2.459,-0.141 -3.627,-0.4 1.292,3.115 2.009,6.529 2.009,10.111 0,14.585 -11.824,26.409 -26.409,26.409 -2.388,0 -4.699,-0.322 -6.898,-0.916 -2.205,18.908 -18.274,33.584 -37.774,33.584 -19.5,0 -35.571,-14.676 -37.776,-33.584 -2.199,0.594 -4.509,0.916 -6.896,0.916 -14.586,0 -26.409,-11.824 -26.409,-26.409 0,-3.582 0.717,-6.996 2.009,-10.111 -1.168,0.259 -2.381,0.4 -3.627,0.4 -9.223,0 -16.699,-7.477 -16.699,-16.698 0,-9.222 7.476,-16.698 16.699,-16.698 H 0 c 9.222,0 16.698,7.476 16.698,16.698 C 16.698,-7.477 9.222,0 0,0"
             style="fill:#7070ab;fill-opacity:1;fill-rule:nonzero;stroke:none"
             id="path7750" /></g><g
           id="g7752"
           transform="translate(235.9746,88.7559)"><path
             d="M 0,0 C 0,0.518 0.021,1.029 0.053,1.538 0.035,1.538 0.018,1.537 0,1.537 c -21.007,0 -38.036,17.029 -38.036,38.036 0,1.507 0.091,2.992 0.261,4.453 v -0.001 c -2.2,0.594 -4.51,0.916 -6.897,0.916 -14.586,0 -26.409,-11.824 -26.409,-26.409 0,-3.582 0.717,-6.996 2.009,-10.111 -1.168,0.26 -2.381,0.4 -3.627,0.4 -9.223,0 -16.698,-7.476 -16.698,-16.698 0,-9.222 7.475,-16.698 16.698,-16.698 H 24.574 C 11.002,-24.575 0,-13.572 0,0"
             style="fill:#616196;fill-opacity:1;fill-rule:nonzero;stroke:none"
             id="path7754" /></g><g
           id="g7756"
           transform="translate(150.4004,147.4268)"><path
             d="m 0,0 c 0,-8.284 -6.715,-15 -15,-15 -8.284,0 -15,6.716 -15,15 0,8.284 6.716,15 15,15 C -6.715,15 0,8.284 0,0"
             style="fill:#8080c1;fill-opacity:1;fill-rule:nonzero;stroke:none"
             id="path7758" /></g><g
           id="g7760"
           transform="translate(424.7578,306.6172)"><path
             d="m 0,0 c 0,-5.523 -4.477,-10 -10,-10 -5.522,0 -10,4.477 -10,10 0,5.522 4.478,10 10,10 C -4.477,10 0,5.522 0,0"
             style="fill:#8080c1;fill-opacity:1;fill-rule:nonzero;stroke:none"
             id="path7762" /></g><g
           id="g7764"
           transform="translate(259.502,30.3975)"><path
             d="m 0,0 c 0,-5.522 -4.478,-10 -10,-10 -5.523,0 -10,4.478 -10,10 0,5.523 4.477,10 10,10 C -4.478,10 0,5.523 0,0"
             style="fill:#8080c1;fill-opacity:1;fill-rule:nonzero;stroke:none"
             id="path7766" /></g><g
           id="g7768"
           transform="translate(457.5166,283.7344)"><path
             d="M 0,0 V -30"
             style="fill:none;stroke:#8080c1;stroke-width:15;stroke-linecap:round;stroke-linejoin:round;stroke-miterlimit:10;stroke-dasharray:none;stroke-opacity:1"
             id="path7770" /></g><g
           id="g7772"
           transform="translate(472.5166,268.7344)"><path
             d="M 0,0 H -30"
             style="fill:none;stroke:#8080c1;stroke-width:15;stroke-linecap:round;stroke-linejoin:round;stroke-miterlimit:10;stroke-dasharray:none;stroke-opacity:1"
             id="path7774" /></g></g></g></g></svg>
