<svg width="40" height="40" viewBox="0 0 40 40" fill="currentColor" xmlns="http://www.w3.org/2000/svg">
<path d="M32.2078 11.8625C32.6023 10.6551 32.7376 9.378 32.6049 8.11471C32.4721 6.85142 32.0743 5.63035 31.4375 4.53127C31.3552 4.38867 31.2367 4.27026 31.0941 4.18797C30.9515 4.10568 30.7897 4.06242 30.625 4.06252C29.1911 4.05934 27.777 4.39783 26.4999 5.04996C25.2228 5.70209 24.1195 6.64908 23.2812 7.81252H19.2188C18.3805 6.64908 17.2772 5.70209 16.0001 5.04996C14.723 4.39783 13.3089 4.05934 11.875 4.06252C11.7103 4.06242 11.5485 4.10568 11.4059 4.18797C11.2633 4.27026 11.1448 4.38867 11.0625 4.53127C10.4257 5.63035 10.0279 6.85142 9.89515 8.11471C9.76241 9.378 9.8977 10.6551 10.2922 11.8625C9.50117 13.1904 9.07683 14.7045 9.0625 16.25V17.5C9.06525 19.6408 9.88071 21.7006 11.344 23.2631C12.8073 24.8256 14.8094 25.7743 16.9453 25.9172C15.8965 27.0177 15.3118 28.4798 15.3125 30V31.5625H11.25C10.1726 31.5625 9.13925 31.1345 8.37738 30.3726C7.61551 29.6108 7.1875 28.5775 7.1875 27.5C7.1875 25.9253 6.56194 24.4151 5.44845 23.3016C4.33495 22.1881 2.82472 21.5625 1.25 21.5625C1.00136 21.5625 0.762903 21.6613 0.587087 21.8371C0.411272 22.0129 0.3125 22.2514 0.3125 22.5C0.3125 22.7487 0.411272 22.9871 0.587087 23.1629C0.762903 23.3387 1.00136 23.4375 1.25 23.4375C2.32744 23.4375 3.36075 23.8655 4.12262 24.6274C4.88449 25.3893 5.3125 26.4226 5.3125 27.5C5.3125 29.0747 5.93806 30.585 7.05155 31.6985C8.16505 32.812 9.67528 33.4375 11.25 33.4375H15.3125V36.25C15.3125 36.4987 15.4113 36.7371 15.5871 36.9129C15.7629 37.0887 16.0014 37.1875 16.25 37.1875C16.4986 37.1875 16.7371 37.0887 16.9129 36.9129C17.0887 36.7371 17.1875 36.4987 17.1875 36.25V30C17.1875 28.9226 17.6155 27.8893 18.3774 27.1274C19.1392 26.3655 20.1726 25.9375 21.25 25.9375C22.3274 25.9375 23.3608 26.3655 24.1226 27.1274C24.8845 27.8893 25.3125 28.9226 25.3125 30V36.25C25.3125 36.4987 25.4113 36.7371 25.5871 36.9129C25.7629 37.0887 26.0014 37.1875 26.25 37.1875C26.4986 37.1875 26.7371 37.0887 26.9129 36.9129C27.0887 36.7371 27.1875 36.4987 27.1875 36.25V30C27.1882 28.4798 26.6035 27.0177 25.5547 25.9172C27.6906 25.7743 29.6927 24.8256 31.156 23.2631C32.6193 21.7006 33.4348 19.6408 33.4375 17.5V16.25C33.4232 14.7045 32.9988 13.1904 32.2078 11.8625ZM31.5625 17.5C31.5625 19.2405 30.8711 20.9097 29.6404 22.1404C28.4097 23.3711 26.7405 24.0625 25 24.0625H17.5C15.7595 24.0625 14.0903 23.3711 12.8596 22.1404C11.6289 20.9097 10.9375 19.2405 10.9375 17.5V16.25C10.9539 14.9322 11.3499 13.647 12.0781 12.5485C12.1738 12.4215 12.2356 12.2723 12.2578 12.1148C12.2799 11.9574 12.2616 11.7969 12.2047 11.6485C11.8509 10.735 11.6882 9.75877 11.7266 8.77999C11.7651 7.80121 12.0038 6.8407 12.4281 5.95783C13.5388 6.04162 14.6146 6.38324 15.5702 6.95554C16.5258 7.52785 17.3347 8.31508 17.9328 9.25471C18.0176 9.38747 18.1345 9.49672 18.2727 9.57236C18.4109 9.64801 18.5659 9.68762 18.7234 9.68752H23.7766C23.934 9.68778 24.0889 9.64842 24.227 9.57305C24.3652 9.49768 24.4822 9.38874 24.5672 9.25627C25.1649 8.31618 25.9738 7.52852 26.9294 6.95591C27.885 6.38331 28.961 6.04156 30.0719 5.95783C30.4962 6.8407 30.7349 7.80121 30.7734 8.77999C30.8118 9.75877 30.6491 10.735 30.2953 11.6485C30.2385 11.7962 30.22 11.956 30.2416 12.1128C30.2632 12.2696 30.3241 12.4184 30.4187 12.5453C31.1493 13.6441 31.5465 14.9307 31.5625 16.25V17.5Z" />
</svg>
